HIERARCHY
ROOT Hip
{
	OFFSET 0.000000 0.000000 0.000000 
	CHANNELS 6 Xposition Yposition Zposition Xrotation Yrotation Zrotation
	JOINT LowerSpine
	{
		OFFSET 0.000000 8.345300 -5.129200 
		CHANNELS 3 Xrotation Yrotation Zrotation
		JOINT MiddleSpine
		{
			OFFSET 10.856900 0.000000 0.000000 
			CHANNELS 3 Xrotation Yrotation Zrotation
			JOINT Chest
			{
				OFFSET 15.298400 0.000000 0.000000 
				CHANNELS 3 Xrotation Yrotation Zrotation
				JOINT Neck
				{
					OFFSET 25.661800 -0.598600 0.000000 
					CHANNELS 3 Xrotation Yrotation Zrotation
					JOINT Head
					{
						OFFSET 8.882900 0.000000 0.000000 
						CHANNELS 3 Xrotation Yrotation Zrotation
						End Site
						{
							OFFSET 19.739901 0.000000 0.000000 
						}
					}
				}
				JOINT RClavicle
				{
					OFFSET 23.687799 0.000000 3.158400 
					CHANNELS 3 Xrotation Yrotation Zrotation
					JOINT RShoulder
					{
						OFFSET -15.594500 -3.948000 0.987000 
						CHANNELS 3 Xrotation Yrotation Zrotation
						JOINT RForearm
						{
							OFFSET -31.337000 0.000000 0.197400 
							CHANNELS 3 Xrotation Yrotation Zrotation
							JOINT RHand
							{
								OFFSET -26.402100 0.000000 0.000000 
								CHANNELS 3 Xrotation Yrotation Zrotation
								End Site
								{
									OFFSET -15.791900 -0.987000 0.000000 
								}
							}
						}
					}
				}
				JOINT LClavicle
				{
					OFFSET 23.687799 0.000000 -3.158400 
					CHANNELS 3 Xrotation Yrotation Zrotation
					JOINT LShoulder
					{
						OFFSET -15.594500 -3.948000 -0.987000 
						CHANNELS 3 Xrotation Yrotation Zrotation
						JOINT LForearm
						{
							OFFSET -31.337000 0.000000 -0.197400 
							CHANNELS 3 Xrotation Yrotation Zrotation
							JOINT LHand
							{
								OFFSET -26.402100 0.000000 0.000000 
								CHANNELS 3 Xrotation Yrotation Zrotation
								End Site
								{
									OFFSET -15.791900 -0.987000 0.000000 
								}
							}
						}
					}
				}
			}
		}
	}
	JOINT RThigh
	{
		OFFSET -8.882900 0.448100 0.000000 
		CHANNELS 3 Xrotation Yrotation Zrotation
		JOINT RShin
		{
			OFFSET 43.131599 0.000000 -0.493500 
			CHANNELS 3 Xrotation Yrotation Zrotation
			JOINT RFoot
			{
				OFFSET 0.000000 -44.725601 -0.404700 
				CHANNELS 3 Xrotation Yrotation Zrotation
				JOINT RToe
				{
					OFFSET 0.000000 -3.933200 12.195300 
					CHANNELS 3 Xrotation Yrotation Zrotation
					End Site
					{
						OFFSET 6.772500 0.000000 0.000000 
					}
				}
			}
		}
	}
	JOINT LThigh
	{
		OFFSET 8.882900 0.448100 0.000000 
		CHANNELS 3 Xrotation Yrotation Zrotation
		JOINT LShin
		{
			OFFSET 43.131599 0.000000 0.493500 
			CHANNELS 3 Xrotation Yrotation Zrotation
			JOINT LFoot
			{
				OFFSET 0.000000 -44.725601 0.404700 
				CHANNELS 3 Xrotation Yrotation Zrotation
				JOINT LToe
				{
					OFFSET 0.000000 -3.933200 -12.195300 
					CHANNELS 3 Xrotation Yrotation Zrotation
					End Site
					{
						OFFSET 6.772500 0.000000 0.000000 
					}
				}
			}
		}
	}
}
MOTION
Frames: 15
Frame Time: 0.016949
12.128010 91.292061 -0.892022 1.530672 -2.345144 0.968997 -89.999992 -90.000000 0.000000 -0.052519 -0.690014 -2.023141 -0.265243 -2.289413 -6.751464 0.000000 0.000000 0.000000 0.000000 0.000000 0.000000 90.004929 -0.343729 -85.378952 -15.170655 56.559273 75.446587 3.934236 34.970612 -7.242739 0.000000 0.000000 0.000000 -89.998878 0.380470 -84.888222 22.385469 -45.741684 86.983200 -3.063987 -29.359560 -6.740817 0.000000 0.000000 0.000000 -11.418442 80.852226 -87.758156 89.728462 28.441277 90.039711 -12.862925 0.191339 0.208445 171.948578 90.000000 0.000000 166.379181 85.629036 94.552444 -89.800430 -21.608870 90.015846 12.910754 5.206550 -3.118331 181.252167 -90.000000 0.000000 
12.228630 91.160484 -1.105665 1.952658 -4.034100 1.585423 -89.999992 -90.000000 0.000000 -0.131598 -0.692149 -1.905033 -0.525680 -2.285695 -6.359809 0.000000 0.000000 0.000000 0.000000 0.000000 0.000000 90.006813 -0.370643 -85.016304 -13.670466 54.573120 74.472687 4.267945 37.410030 -7.409220 0.000000 0.000000 0.000000 -89.998627 0.373769 -84.978256 23.957830 -47.002804 89.393265 -2.945051 -28.439146 -6.687091 0.000000 0.000000 0.000000 -5.167519 80.399483 -96.678360 89.689850 31.985062 90.054115 -12.652750 1.458855 0.985359 170.731049 90.000000 0.000000 156.134155 85.276917 104.556015 -89.801407 -21.509384 90.015602 13.249013 5.967404 -3.565195 181.166580 -90.000000 0.000000 
12.277150 90.968605 -1.291708 2.332748 -6.198776 2.144711 -89.999992 -90.000000 0.000000 -0.209144 -0.710058 -1.783767 -0.782825 -2.336121 -5.957943 0.000000 0.000000 0.000000 0.000000 0.000000 0.000000 90.008110 -0.390832 -84.744331 -13.305468 52.776554 74.631081 4.534256 39.253193 -7.552217 0.000000 0.000000 0.000000 -89.998055 0.356424 -85.211319 25.429029 -48.963779 91.131660 -2.899740 -28.089582 -6.666526 0.000000 0.000000 0.000000 -0.350101 80.211288 -104.691551 89.640442 36.196938 90.075958 -11.936185 2.183160 1.392917 169.239334 90.000000 0.000000 149.262833 84.828796 111.135040 -89.798973 -21.755236 90.016235 13.819932 7.266296 -4.406952 181.105988 -90.000000 0.000000 
12.240371 90.736732 -1.486752 2.684087 -8.615226 2.541641 -89.999992 -90.000000 0.000000 -0.286602 -0.749096 -1.665584 -1.041963 -2.458252 -5.567096 0.000000 0.000000 0.000000 0.000000 0.000000 0.000000 90.008659 -0.403080 -84.579521 -13.525289 52.210995 75.280838 4.695192 40.320965 -7.642922 0.000000 0.000000 0.000000 -89.997246 0.327895 -85.594635 26.794209 -51.773109 92.284348 -2.920514 -28.259327 -6.674925 0.000000 0.000000 0.000000 3.732544 81.540398 -112.305099 89.584312 40.536144 90.104813 -10.298210 0.867380 0.563257 167.202606 90.000000 0.000000 146.228928 84.504074 113.618416 -89.790665 -22.587000 90.018448 14.609031 8.736649 -5.443332 181.057907 -90.000000 0.000000 
12.233591 90.425461 -1.809895 3.147592 -11.226113 2.994592 -89.999992 -90.000000 0.000000 -0.365675 -0.807735 -1.554790 -1.308290 -2.646659 -5.202026 0.000000 0.000000 0.000000 0.000000 0.000000 0.000000 90.007500 -0.397489 -84.655434 -14.153450 52.097050 76.162560 4.875032 41.466709 -7.748481 0.000000 0.000000 0.000000 -89.996483 0.291582 -86.082451 27.741859 -53.188107 92.953789 -3.106485 -29.702503 -6.758558 0.000000 0.000000 0.000000 11.913321 84.152206 -124.432671 89.521698 44.839809 90.141388 -7.946690 -1.719836 -0.793579 164.639694 90.000000 0.000000 145.411102 84.005493 113.272987 -89.773636 -24.266165 90.023399 15.460340 9.769830 -6.283180 181.072311 -90.000000 0.000000 
12.258111 89.979187 -2.226738 3.773376 -14.117964 3.616053 -89.999992 -90.000000 0.000000 -0.445763 -0.878657 -1.454626 -1.578815 -2.876867 -4.873623 0.000000 0.000000 0.000000 0.000000 0.000000 0.000000 90.004974 -0.375906 -84.946930 -15.006701 51.857780 77.000885 5.134667 43.043983 -7.907405 0.000000 0.000000 0.000000 -89.995995 0.252688 -86.604927 27.541121 -51.216927 92.654953 -3.582976 -33.211399 -6.993131 0.000000 0.000000 0.000000 33.019150 86.201439 -149.509949 89.453918 48.913464 90.185333 -5.802783 -3.122774 -1.389777 162.574661 90.000000 0.000000 146.938873 82.889961 109.890839 -89.744843 -27.018610 90.032883 16.404221 9.698308 -6.492710 181.263336 -90.000000 0.000000 
12.172231 89.422806 -2.568582 4.386477 -16.907625 4.155469 -89.999992 -90.000000 0.000000 -0.522331 -0.952939 -1.367943 -1.837543 -3.119350 -4.591012 0.000000 0.000000 0.000000 0.000000 0.000000 0.000000 90.001656 -0.340968 -85.418022 -15.354992 50.941647 77.163292 5.590189 45.628807 -8.201053 0.000000 0.000000 0.000000 -89.995865 0.215246 -87.107826 27.666739 -48.521252 92.498413 -4.193812 -37.337055 -7.330284 0.000000 0.000000 0.000000 54.600044 86.552483 -174.587326 89.383690 52.564804 90.234818 -4.350270 -2.845109 -1.227372 161.889221 90.000000 0.000000 149.463562 81.733833 105.260994 -89.707649 -30.402853 90.047096 17.568708 9.369410 -6.577704 181.597549 -90.000000 0.000000 
11.962251 88.825630 -2.853325 4.941730 -19.183945 4.470371 -89.999992 -90.000000 0.000000 -0.587443 -1.024380 -1.297202 -2.057601 -3.353959 -4.361566 0.000000 0.000000 0.000000 0.000000 0.000000 0.000000 89.998421 -0.300035 -85.969391 -15.047732 49.072842 76.471962 6.466213 50.039211 -8.808512 0.000000 0.000000 0.000000 -89.996002 0.180398 -87.575836 29.396229 -48.067410 93.250816 -4.745970 -40.716240 -7.666054 0.000000 0.000000 0.000000 59.441807 86.158432 -182.639099 89.309113 55.897068 90.290894 -3.093528 -2.051856 -0.852397 162.192413 90.000000 0.000000 152.047546 80.951134 100.636528 -89.668968 -33.710899 90.064079 18.786768 10.161275 -7.519638 181.962250 -90.000000 0.000000 
11.689672 88.183151 -3.189968 5.521870 -21.305885 4.728559 -89.999992 -90.000000 0.000000 -0.632777 -1.090979 -1.243804 -2.211183 -3.574654 -4.188878 0.000000 0.000000 0.000000 0.000000 0.000000 0.000000 89.995964 -0.262592 -86.473213 -15.310904 46.717541 76.213150 7.885290 55.871273 -9.884982 0.000000 0.000000 0.000000 -89.996399 0.146898 -88.025871 31.848970 -48.982021 94.071342 -5.385892 -44.247017 -8.086436 0.000000 0.000000 0.000000 64.453705 85.733917 169.096817 89.225281 59.085945 90.357376 -1.905778 -1.184442 -0.498214 163.388382 90.000000 0.000000 155.519623 79.707008 95.167038 -89.629478 -36.862873 90.083527 19.965326 11.288075 -8.778565 182.339569 -90.000000 0.000000 
11.343791 87.513374 -3.536412 6.075387 -23.522825 5.040173 -89.999992 -90.000000 0.000000 -0.653761 -1.153147 -1.207001 -2.283170 -3.783082 -4.069665 0.000000 0.000000 0.000000 0.000000 0.000000 0.000000 89.994522 -0.236064 -86.830009 -16.910074 43.499088 77.598885 9.940820 62.164322 -11.583481 0.000000 0.000000 0.000000 -89.997032 0.113169 -88.478989 33.833241 -49.173069 94.388351 -6.406311 -49.127541 -8.812678 0.000000 0.000000 0.000000 75.905663 85.321793 154.492035 89.133286 62.030720 90.433640 -1.277913 -0.568833 -0.280499 166.384369 90.000000 0.000000 158.874908 78.271126 90.012482 -89.589600 -39.816647 90.105118 21.124765 11.394866 -9.215365 182.679886 -90.000000 0.000000 
10.946312 86.956299 -3.825855 6.561794 -25.506306 5.276467 -89.999992 -90.000000 0.000000 -0.652641 -1.211163 -1.183129 -2.281489 -3.979331 -3.991964 0.000000 0.000000 0.000000 0.000000 0.000000 0.000000 89.993851 -0.222731 -87.009201 -19.062237 38.618038 79.853119 13.123850 68.705093 -14.404846 0.000000 0.000000 0.000000 -89.997948 0.079177 -88.935730 35.634109 -47.869293 94.787788 -8.003102 -55.240715 -10.053647 0.000000 0.000000 0.000000 83.946098 84.654861 143.672058 89.044312 64.425705 90.510002 -0.827498 -0.690497 -0.336836 170.660843 90.000000 0.000000 161.133682 77.956825 86.373970 -89.556381 -42.107056 90.124481 22.117865 10.682364 -8.913071 182.908600 -90.000000 0.000000 
10.590732 86.606827 -4.073699 7.093330 -27.351315 5.480261 -89.999992 -90.000000 0.000000 -0.639018 -1.264401 -1.166285 -2.238931 -4.159160 -3.937689 0.000000 0.000000 0.000000 0.000000 0.000000 0.000000 89.993690 -0.219890 -87.047333 -20.947968 32.948177 81.535973 18.719717 75.320038 -19.638121 0.000000 0.000000 0.000000 -89.999039 0.046515 -89.374733 38.009602 -45.696762 95.796021 -10.270568 -61.587395 -11.963223 0.000000 0.000000 0.000000 84.738319 83.937920 140.460678 88.972153 66.087997 90.573517 0.161722 -1.340314 -0.566513 174.134018 90.000000 0.000000 162.924271 78.254356 83.624474 -89.535126 -43.491062 90.137489 22.847954 9.953198 -8.507158 182.996918 -90.000000 0.000000 
10.315652 86.424751 -4.290742 7.723024 -29.258467 5.843953 -89.999992 -90.000000 0.000000 -0.627652 -1.312335 -1.151049 -2.205083 -4.318784 -3.890544 0.000000 0.000000 0.000000 0.000000 0.000000 0.000000 89.993721 -0.222082 -87.017807 -22.738087 27.670113 82.655144 30.333872 81.482498 -30.902946 0.000000 0.000000 0.000000 -90.000252 0.016927 -89.772491 40.796551 -43.097843 97.125999 -13.314227 -67.359558 -14.688159 0.000000 0.000000 0.000000 82.181435 83.198914 140.825806 88.921707 67.106430 90.618759 1.095568 -1.730229 -0.683099 176.169891 90.000000 0.000000 164.407150 77.935646 81.540146 -89.524841 -44.135715 90.143974 23.365572 9.742415 -8.466656 182.922623 -90.000000 0.000000 
10.077273 86.345276 -4.424286 8.240644 -30.797047 6.314332 -89.999992 -90.000000 0.000000 -0.634036 -1.355675 -1.136010 -2.230786 -4.460425 -3.846250 0.000000 0.000000 0.000000 0.000000 0.000000 0.000000 89.993744 -0.223497 -86.998749 -24.587698 22.576220 83.799110 62.549091 86.202621 -62.777592 0.000000 0.000000 0.000000 -90.001457 -0.009339 -90.125755 43.739220 -40.068180 98.583534 -17.190975 -72.100563 -18.304855 0.000000 0.000000 0.000000 79.786308 82.273163 141.429932 88.902084 67.432693 90.636856 1.106465 -1.438356 -0.569316 177.584671 90.000000 0.000000 165.133423 77.181458 80.585930 -89.522568 -44.271091 90.145477 23.679201 10.051660 -8.823668 182.733841 -90.000000 0.000000 
9.800792 86.338394 -4.425729 8.463791 -31.733767 6.744741 -89.999992 -90.000000 0.000000 -0.668855 -1.396599 -1.125721 -2.350514 -4.592640 -3.819196 0.000000 0.000000 0.000000 0.000000 0.000000 0.000000 89.993645 -0.220163 -87.043442 -26.287310 17.664406 84.961655 122.063934 85.681671 -121.964516 0.000000 0.000000 0.000000 -90.002739 -0.034075 -90.458488 46.722420 -36.994011 100.097694 -21.672424 -75.597626 -22.592812 0.000000 0.000000 0.000000 78.973274 81.031372 141.306351 88.940338 66.566299 90.603264 0.665193 -0.722507 -0.317108 178.515152 90.000000 0.000000 165.118408 76.753212 80.773659 -89.525787 -44.061466 90.143524 23.766750 9.861483 -8.683102 182.611053 -90.000000 0.000000 
